<svg width="288" height="261" viewBox="0 0 288 261" fill="none" xmlns="http://www.w3.org/2000/svg">
<circle opacity="0.3" cx="122.5" cy="165.5" r="165.5" fill="#121212"/>
<path d="M133.595 71C166.348 71 193 97.6059 193 130.315C193 163.024 166.348 189.67 133.595 189.67C122.491 189.67 112.12 186.546 103.215 181.223C102.121 182.512 100.701 184.203 99.031 186.229C95.5517 190.45 91.0783 195.92 86.6911 201.337C77.9168 212.173 69.4295 222.774 69.4295 222.774C69.0255 223.357 68.5059 223.85 67.903 224.224C67.3 224.597 66.6266 224.843 65.9245 224.945C65.2225 225.048 64.5068 225.006 63.8219 224.82C63.1371 224.635 62.4977 224.311 61.9435 223.868C61.3893 223.426 60.9321 222.875 60.6004 222.248C60.2687 221.622 60.0695 220.934 60.0152 220.227C59.9609 219.521 60.0527 218.811 60.2848 218.141C60.5169 217.472 60.8845 216.857 61.3646 216.335C61.3646 216.335 69.8726 205.718 78.6667 194.858C83.0638 189.428 87.5315 183.933 91.047 179.668C92.5357 177.862 93.721 176.427 94.7964 175.147C82.1937 164.252 74.1593 148.214 74.1592 130.315C74.1593 97.6059 100.842 71 133.595 71ZM133.595 81.3351C106.435 81.3351 84.5183 103.191 84.5183 130.315C84.5183 157.438 106.435 179.325 133.595 179.325C160.755 179.325 182.681 157.438 182.681 130.315C182.681 103.191 160.755 81.3351 133.595 81.3351Z" fill="#121212"/>
</svg>
